<svg width="30" height="30" viewBox="0 0 30 30" fill="none" xmlns="http://www.w3.org/2000/svg">
<path opacity="0.5" d="M2.5 15C2.5 9.10744 2.5 6.16116 4.33059 4.33059C6.16116 2.5 9.10744 2.5 15 2.5C20.8925 2.5 23.8389 2.5 25.6694 4.33059C27.5 6.16116 27.5 9.10744 27.5 15C27.5 20.8925 27.5 23.8389 25.6694 25.6694C23.8389 27.5 20.8925 27.5 15 27.5C9.10744 27.5 6.16116 27.5 4.33059 25.6694C2.5 23.8389 2.5 20.8925 2.5 15Z" stroke="white" stroke-width="1.5"/>
<path d="M8.75 22.5V11.25" stroke="white" stroke-width="1.5" stroke-linecap="round"/>
<path d="M15 22.5V7.5" stroke="white" stroke-width="1.5" stroke-linecap="round"/>
<path d="M21.25 22.5V16.25" stroke="white" stroke-width="1.5" stroke-linecap="round"/>
</svg>
