<svg width="263" height="56" viewBox="0 0 263 56" fill="none" xmlns="http://www.w3.org/2000/svg">
<path d="M53.2074 56V19.3629H63.7231V56H53.2074ZM63.6112 10.9168H1.46794C3.87313 4.65209 10.0819 0.40107 16.794 0.40107H63.6112V10.9168ZM0.349251 40.0027H10.9209C11.2006 42.9673 13.6057 45.4284 16.794 45.4284H31.6726C34.9727 45.4284 37.6017 42.6876 37.6017 39.3874C37.6017 36.1432 34.9168 33.4584 31.6726 33.4584H16.794C8.51569 33.4584 1.91542 27.4734 0.572989 19.4188H11.4802C12.4311 21.4884 14.3888 22.8868 16.794 22.8868H31.6726C40.7899 22.8868 48.1173 30.326 48.1173 39.3874C48.1173 48.5607 40.7899 56 31.6726 56H16.794C7.84448 56 0.628923 48.9522 0.349251 40.0027ZM117.812 56V0.40107H128.496V56H117.812ZM91.4671 35.8076L80.6717 13.3219C80.0005 11.9236 78.4902 10.8608 76.8681 10.8608H67.9186V0.40107H79.6089C83.6362 0.40107 87.1042 2.52658 88.8381 6.16233L98.2351 25.6275L109.422 2.30284V26.5225C109.366 26.5784 109.366 26.6344 109.31 26.8022L108.807 27.809C108.415 28.648 107.912 29.8786 107.297 30.9973C106.234 33.0109 105.395 34.9686 105.003 35.8076H91.4671ZM67.9186 56V19.3629H78.6021V56H67.9186ZM163.69 56H132.702V33.3465C132.702 27.5293 137.345 22.8868 143.05 22.8868H164.025C167.27 22.8868 169.955 20.2019 169.955 16.9577C169.955 13.6576 167.326 10.9168 164.025 10.9168H132.702V0.40107H163.746C172.975 0.40107 180.47 7.78443 180.47 17.0696C180.47 21.0968 178.96 24.7885 176.331 27.7531L176.051 28.1446L176.331 28.5361C179.296 31.8922 180.47 35.5839 180.47 40.0587C180.47 41.457 180.191 42.9113 179.743 44.3097C177.506 51.3015 170.905 56 163.69 56ZM143.218 37.7094V45.4284H164.025C167.27 45.4284 169.955 42.7435 169.955 39.4434C169.955 36.2551 167.326 33.4584 164.025 33.4584H147.413C145.12 33.4584 143.218 35.3042 143.218 37.7094ZM184.813 56V0.40107H195.329V56H184.813Z" fill="white"/>
<path d="M237.142 56V24.6767C237.142 17.2933 231.268 10.9168 223.829 10.9168H204.084C208.559 4.37242 215.607 0.345133 223.661 0.345133C236.918 0.345133 247.657 11.0846 247.657 24.397V56H237.142ZM199.889 56V35.3602C199.889 29.6548 204.532 24.9563 210.237 24.9563H228.64V35.528H214.6C212.307 35.528 210.405 37.4857 210.405 39.779V56H199.889ZM251.945 56V0.40107H262.461V56H251.945Z" fill="#CF4B4B"/>
</svg>
