<svg width="661" height="128" viewBox="0 0 661 128" fill="none" xmlns="http://www.w3.org/2000/svg">
<path d="M121.336 128V44.16H145.4V128H121.336ZM145.144 24.832H2.936C8.44 10.496 22.648 0.767998 38.008 0.767998H145.144V24.832ZM0.376 91.392H24.568C25.208 98.176 30.712 103.808 38.008 103.808H72.056C79.608 103.808 85.624 97.536 85.624 89.984C85.624 82.56 79.48 76.416 72.056 76.416H38.008C19.064 76.416 3.96 62.72 0.888 44.288H25.848C28.024 49.024 32.504 52.224 38.008 52.224H72.056C92.92 52.224 109.688 69.248 109.688 89.984C109.688 110.976 92.92 128 72.056 128H38.008C17.528 128 1.016 111.872 0.376 91.392ZM269.177 128V0.767998H293.625V128H269.177ZM208.889 81.792L184.185 30.336C182.649 27.136 179.193 24.704 175.481 24.704H155.001V0.767998H181.753C190.969 0.767998 198.905 5.632 202.873 13.952L224.377 58.496L249.977 5.12V60.544C249.849 60.672 249.849 60.8 249.721 61.184L248.569 63.488C247.673 65.408 246.521 68.224 245.113 70.784C242.681 75.392 240.761 79.872 239.865 81.792H208.889ZM155.001 128V44.16H179.449V128H155.001ZM374.163 128H303.251V76.16C303.251 62.848 313.875 52.224 326.931 52.224H374.931C382.355 52.224 388.499 46.08 388.499 38.656C388.499 31.104 382.483 24.832 374.931 24.832H303.251V0.767998H374.291C395.411 0.767998 412.563 17.664 412.563 38.912C412.563 48.128 409.107 56.576 403.091 63.36L402.451 64.256L403.091 65.152C409.875 72.832 412.563 81.28 412.563 91.52C412.563 94.72 411.923 98.048 410.899 101.248C405.779 117.248 390.675 128 374.163 128ZM327.315 86.144V103.808H374.931C382.355 103.808 388.499 97.664 388.499 90.112C388.499 82.816 382.483 76.416 374.931 76.416H336.915C331.667 76.416 327.315 80.64 327.315 86.144ZM422.501 128V0.767998H446.565V128H422.501Z" fill="white"/>
<path d="M594.089 128V44.288H618.153V128H594.089ZM539.945 44.288H565.161C565.929 48 566.313 51.84 566.313 55.68V72.96C566.313 103.168 541.609 128 511.657 128C481.705 128 457.001 103.424 457.001 72.96V55.68C457.001 25.344 481.705 0.767998 511.657 0.767998H660.777V24.832H512.553C495.273 24.832 481.065 37.888 481.065 55.68V72.96C481.065 89.984 494.889 103.808 511.657 103.808C528.425 103.808 542.249 89.856 542.249 72.96V55.68C542.249 51.712 541.481 47.872 539.945 44.288Z" fill="#CF4B4B"/>
</svg>
